# AST/ASF file generated using VICON BodyLanguage
# -----------------------------------------------
:version 1.10
:name VICON
:units
  mass 1.0
  length 0.45
  angle deg
:documentation
   .ast/.asf automatically generated from VICON data using
   VICON BodyBuilder and BodyLanguage model FoxedUp or BRILLIANT.MOD
:root
   order TX TY TZ RX RY RZ
   axis XYZ
   position 0 0 0  
   orientation 0 0 0 
:bonedata
  begin
     id 1 
     name lhipjoint
     direction 0.716248 -0.617586 0.324924 
     length 2.63557 
     axis 0 0 0  XYZ
  end
  begin
     id 2 
     name lfemur
     direction 0.34202 -0.939693 0  
     length 7.01235  
     axis 0 0 20  XYZ
    dof rx ry rz
    limits (-160.0 20.0)
           (-70.0 70.0)
           (-60.0 70.0)
  end
  begin
     id 3 
     name ltibia
     direction 0.34202 -0.939693 0   
     length 8.14348   
     axis 0 0 20   XYZ
    dof rx
    limits (-10.0 170.0)
  end
  begin
     id 4 
     name lfoot
     direction 0.0982064 -0.26982 0.95789   
     length 1.99077   
     axis -90 7.62852e-016 20   XYZ
    dof rx rz
    limits (-45.0 90.0)
           (-70.0 20.0)
  end
  begin
     id 5 
     name ltoes
     direction 1.53511e-011 -4.21891e-011 1   
     length 0.99735   
     axis -90 7.62852e-016 20   XYZ
    dof rx
    limits (-90.0 20.0)
  end
  begin
     id 6 
     name rhipjoint
     direction -0.687828 -0.642391 0.337975   
     length 2.5338  
     axis 0 0 0  XYZ 
  end
  begin
     id 7 
     name rfemur
     direction -0.34202 -0.939693 0   
     length 6.90199   
     axis 0 0 -20   XYZ
    dof rx ry rz
    limits (-160.0 20.0)
           (-70.0 70.0)
           (-70.0 60.0)
  end
  begin
     id 8 
     name rtibia
     direction -0.34202 -0.939693 0   
     length 8.07725   
     axis 0 0 -20   XYZ
    dof rx
    limits (-10.0 170.0)
 end
 begin
     id 9 
     name rfoot
     direction -0.0912384 -0.250675 0.963762   
     length 2.11621  
     axis -90 -7.62852e-016 -20   XYZ
    dof rx rz
    limits (-45.0 90.0)
           (-20.0 70.0)
  end
  begin
     id 10 
     name rtoes
     direction -1.5359e-011 -4.21894e-011 1   
     length 1.06031   
     axis -90 -7.62852e-016 -20   XYZ
    dof rx
    limits (-90.0 20.0)
  end
  begin
     id 11 
     name lowerback
     direction -0.0403572 0.987953 -0.149396   
     length 2.05637   
     axis 0 0 0   XYZ
    dof rx ry rz
    limits (-20.0 45.0)
           (-30.0 30.0)
           (-30.0 30.0)
  end
  begin
     id 12 
     name upperback
     direction -0.00512151 0.997598 0.0690792   
     length 2.01086   
     axis 0 0 0   XYZ
    dof rx ry rz
    limits (-20.0 45.0)
           (-30.0 30.0)
           (-30.0 30.0)
  end
  begin
     id 13 
     name thorax
     direction 0.0136133 0.989392 0.14463   
     length 2.09035   
     axis 0 0 0   XYZ
    dof rx ry rz
    limits (-20.0 45.0)
           (-30.0 30.0)
           (-30.0 30.0)
  end
  begin
     id 14 
     name lowerneck
     direction 0.0250714 0.992811 0.11704   
     length 1.70806   
     axis 0 0 0   XYZ
    dof rx ry rz
    limits (-20.0 45.0)
           (-30.0 30.0)
           (-30.0 30.0)
  end
  begin
     id 15 
     name upperneck
     direction -0.0519205 0.998394 -0.0226787   
     length 1.6689   
     axis 0 0 0   XYZ
    dof rx ry rz
    limits (-20.0 45.0)
           (-30.0 30.0)
           (-30.0 30.0)
  end
  begin
     id 16
     name head
     direction -0.0201693 0.999547 -0.0223192  
     length 1.83412  
     axis 0 0 0   XYZ
    dof rx ry rz
    limits (-20.0 45.0)
           (-30.0 30.0)
           (-30.0 30.0)
  end
  begin
     id 17 
     name lclavicle
     direction 0.89585 0.444077 -0.0157448  
     length 3.39587  
     axis 0 0 0   XYZ
    dof ry rz
    limits (-20.0 10.0)
           (0.0 20.0)
  end
  begin
     id 18 
     name lhumerus
     direction 1 -4.48956e-011 1.99132e-028   
     length 5.79199   
     axis 180 -30 -90   XYZ
    dof rx ry rz
    limits (-60.0 90.0)
           (-90.0 90.0)
           (-90.0 90.0)
  end
  begin
     id 19
     name lradius
     direction 1 -4.48974e-011 8.72912e-028   
     length 3.49908   
     axis 180 -30 -90   XYZ
    dof rx
    limits (-10.0 170.0)
  end
  begin
     id 20
     name lwrist
     direction 1 -4.48994e-011 4.76442e-027   
     length 1.74954   
     axis -3.27502e-015 90 90   XYZ
    dof ry
    limits (-180.0 0.0)
 end
  begin
     id 21 
     name lhand
     direction 1 -4.48945e-011 9.531e-027   
     length 0.593861   
     axis -6.08098e-015 90 90   XYZ
    dof rx rz
    limits (-90.0 90.0)
           (-45.0 45.0)
  end
  begin
     id 22 
     name lfingers
     direction 1 -4.48945e-011 1.9062e-026   
     length 0.478786   
     axis -1.21619e-014 90 90   XYZ
    dof rx
    limits (0.0 90.0)
  end
  begin
     id 23
     name lthumb
     direction 0.707107 -6.34904e-011 0.707107   
     length 0.687444   
     axis -90 45 -9.86923e-015   XYZ
    dof rx rz
    limits (-45.0 45.0)
           (-45.0 45.0)
  end
  begin
     id 24 
     name rclavicle
     direction -0.940466 0.338394 0.0318182   
     length 3.51226  
     axis 0 0 0   XYZ 
    dof ry rz
    limits (-10.0 20.0)
           (-20.0 0.0)
  end
  begin
     id 25 
     name rhumerus
     direction -1 -4.48976e-011 2.0905e-027  
     length 5.73799   
     axis 180 30 90   XYZ
    dof rx ry rz
    limits (-90.0 60.0)
           (-90.0 90.0)
           (-90.0 90.0)
  end
  begin
     id 26 
     name rradius
     direction -1 -4.48968e-011 -9.39692e-029   
     length 3.57916   
     axis 180 30 90   XYZ
    dof rx
    limits (-10.0 170.0)
  end
  begin
     id 27 
     name rwrist
     direction -1 -4.48959e-011 4.7652e-027   
     length 1.78958   
     axis -3.27502e-015 -90 -90   XYZ
    dof ry
    limits (-180.0 0.0)
  end
  begin
     id 28
     name rhand
     direction -1 -4.49042e-011 9.5267e-027   
     length 0.615577   
     axis -6.08098e-015 -90 -90   XYZ
    dof rx rz
    limits (-90.0 90.0)
           (-45.0 45.0)
  end
  begin
     id 29
     name rfingers
     direction -1 -4.48935e-011 1.90629e-026   
     length 0.496294   
     axis -1.21619e-014 -90 -90   XYZ
    dof rx
    limits (0.0 90.0)
  end
  begin
     id 30
     name rthumb
     direction -0.707107 -6.34977e-011 0.707107   
     length 0.712582   
     axis -90 -45 9.86923e-015   XYZ
    dof rx rz
    limits (-45.0 45.0)
           (-45.0 45.0)
  end
:hierarchy
  begin
    root lhipjoint rhipjoint lowerback
    lhipjoint lfemur
    lfemur ltibia
    ltibia lfoot
    lfoot ltoes
    rhipjoint rfemur
    rfemur rtibia
    rtibia rfoot
    rfoot rtoes
    lowerback upperback
    upperback thorax
    thorax lowerneck lclavicle rclavicle
    lowerneck upperneck
    upperneck head
    lclavicle lhumerus
    lhumerus lradius
    lradius lwrist
    lwrist lhand lthumb
    lhand lfingers
    rclavicle rhumerus
    rhumerus rradius
    rradius rwrist
    rwrist rhand rthumb
    rhand rfingers
  end

#!OML:ASF H:\Terrain\Patient Classification 1\PaulMetrics\March17Take5\PaulMetrics.ASF
:FULLY-SPECIFIED
:DEGREES
2137
root 14.4801 17.409 -16.2234 -1.14678 -59.9327 9.49657
lowerback 3.01021 -0.281234 -4.4267
upperback -1.75669 -0.583796 -0.0924732
thorax -3.46044 -0.190126 2.42184
lowerneck -5.70196 -0.747153 -0.276183
upperneck 12.5351 -1.02699 -0.238745
head 4.69379 -0.562421 -0.0893448
rclavicle 7.71781e-014 1.31198e-014
rhumerus -47.2333 19.4697 -92.8463
rradius 91.3506
rwrist -6.3708
rhand -27.2199 -27.4094
rfingers 7.12502
rthumb -0.632468 -57.3882
lclavicle 7.71781e-014 1.31198e-014
lhumerus -32.6941 0.323321 79.6868
lradius 35.2907
lwrist 15.154
lhand -12.0138 -22.4701
lfingers 7.12502
lthumb 14.0437 7.0354
rfemur -14.517 1.64495 15.6231
rtibia 27.9842
rfoot -17.8722 -17.5057
rtoes -10.8303
lfemur -15.7606 -2.28131 -12.6388
ltibia 22.4125
lfoot -11.9169 11.117
ltoes -13.4995
2138
root 14.4681 17.4075 -16.2487 -1.43183 -59.9836 9.89803
lowerback 2.98809 -0.174122 -4.70259
upperback -1.83678 -0.456169 -0.121407
thorax -3.53993 -0.117592 2.53942
lowerneck -5.53465 -0.561144 0.20046
upperneck 12.6215 -0.771721 -0.685672
head 4.68817 -0.442867 -0.290391
rclavicle -3.42904e-015 5.1684e-015
rhumerus -47.8229 19.0942 -93.0783
rradius 89.75
rwrist -6.08848
rhand -27.0596 -27.1578
rfingers 7.12502
rthumb -0.47763 -57.137
lclavicle -3.42904e-015 5.1684e-015
lhumerus -32.7067 0.111961 79.7204
lradius 35.3055
lwrist 15.0941
lhand -12.0234 -22.4914
lfingers 7.12502
lthumb 14.0344 7.01474
rfemur -14.5958 2.04748 15.5121
rtibia 27.9515
rfoot -17.315 -17.6412
rtoes -9.82089
lfemur -15.8315 -1.98911 -12.7589
ltibia 22.3575
lfoot -11.7813 10.8839
ltoes -12.1996
2139
root 14.448 17.4099 -16.2806 -1.58836 -59.8851 10.3141
lowerback 2.8156 -0.110562 -5.1443
upperback -1.94986 -0.389604 -0.219996
thorax -3.56501 -0.0731412 2.68049
lowerneck -5.48285 -0.437472 0.785615
upperneck 12.7222 -0.615613 -1.0849
head 4.70767 -0.363501 -0.500916
rclavicle 2.66868e-014 -4.77083e-015
rhumerus -48.0586 18.3257 -93.3399
rradius 87.9151
rwrist -5.60752
rhand -25.9497 -26.4991
rfingers 7.12502
rthumb 0.594351 -56.478
lclavicle 2.66868e-014 -4.77083e-015
lhumerus -32.6671 -0.261844 79.5954
lradius 35.3413
lwrist 15.1763
lhand -11.9383 -22.4207
lfingers 7.12502
lthumb 14.1164 7.07976
rfemur -14.8165 2.52261 15.4074
rtibia 27.9141
rfoot -16.7872 -18.0804
rtoes -9.74487
lfemur -16.0817 -1.99013 -12.8073
ltibia 22.2867
lfoot -11.6378 10.6664
ltoes -11.4781
2140
root 14.4442 17.416 -16.2977 -1.24231 -59.6996 10.0277
lowerback 2.71883 -0.232826 -5.05329
upperback -1.95622 -0.54232 -0.196679
thorax -3.50405 -0.152504 2.66152
lowerneck -5.66959 -0.192263 1.19428
upperneck 12.8322 -0.278452 -1.46671
head 4.77483 -0.202363 -0.667685
rclavicle 7.42958e-015 8.34896e-015
rhumerus -47.8271 18.0053 -93.5921
rradius 85.8731
rwrist -5.2128
rhand -24.0953 -25.92
rfingers 7.12502
rthumb 2.38531 -55.8864
lclavicle 7.42958e-015 8.34896e-015
lhumerus -32.7237 0.0860721 79.35
lradius 35.6023
lwrist 15.0746
lhand -12.0172 -22.4551
lfingers 7.12502
lthumb 14.0404 7.05066
rfemur -14.9488 2.66118 15.6043
rtibia 28.003
rfoot -17.0207 -18.465
rtoes -10.7079
lfemur -16.0971 -2.14171 -12.5288
ltibia 22.0028
lfoot -11.3923 10.3356
ltoes -12.2316
2141
root 14.4502 17.4242 -16.3051 -1.41739 -59.463 10.1832
lowerback 2.72356 -0.442863 -5.00952
upperback -1.87713 -0.817795 -0.188982
thorax -3.40178 -0.294405 2.6596
lowerneck -5.82416 0.108448 1.22376
upperneck 12.9015 0.147461 -1.64366
head 4.82823 -0.00349539 -0.703023
rclavicle 3.47873e-014 -2.78299e-015
rhumerus -47.8404 18.3178 -93.8677
rradius 84.1492
rwrist -5.29914
rhand -23.2328 -25.9658
rfingers 7.12502
rthumb 3.21823 -55.9213
lclavicle 3.47873e-014 -2.78299e-015
lhumerus -32.8273 0.594122 79.1899
lradius 36.0031
lwrist 15.1694
lhand -12.0208 -22.3065
lfingers 7.12502
lthumb 14.037 7.19947
rfemur -14.8044 2.48254 15.5037
rtibia 27.9258
rfoot -17.2505 -18.6216
rtoes -11.4231
lfemur -16.0018 -2.4806 -12.5407
ltibia 21.8231
lfoot -11.2703 10.051
ltoes -10.8425
2142
root 14.4501 17.4281 -16.3323 -2.76708 -59.2469 11.7856
lowerback 2.74889 -0.426911 -5.84979
upperback -1.84798 -0.842646 -0.417453
thorax -3.37947 -0.292023 2.89554
lowerneck -5.88927 0.173778 1.15639
upperneck 12.9394 0.259546 -1.76826
head 4.85256 0.0403048 -0.724042
rclavicle 1.2598e-014 3.18055e-015
rhumerus -47.7447 18.0068 -93.9347
rradius 82.2828
rwrist -5.37911
rhand -22.86 -25.977
rfingers 7.12502
rthumb 3.5783 -55.9267
lclavicle 1.2598e-014 3.18055e-015
lhumerus -32.7314 0.264551 79.2918
lradius 36.2808
lwrist 15.5862
lhand -11.8884 -22.1723
lfingers 7.12502
lthumb 14.1645 7.32478
rfemur -14.8354 2.50904 14.6585
rtibia 27.8481
rfoot -16.9867 -18.7838
rtoes -11.1814
lfemur -16.0237 -2.87817 -13.3041
ltibia 21.6248
lfoot -10.8649 10.2172
ltoes -11.6586
2143
root 14.4609 17.4335 -16.3409 -1.99091 -59.0755 10.6162
lowerback 3.05136 -0.371513 -4.91374
upperback -1.77791 -0.739615 -0.3458
thorax -3.49332 -0.259082 2.44263
lowerneck -5.78173 0.191385 1.24182
upperneck 12.8356 0.302939 -1.98571
head 4.80333 0.0534402 -0.802383
rclavicle 5.99584e-014 1.23246e-014
rhumerus -47.3525 17.345 -93.8575
rradius 80.1448
rwrist -5.27396
rhand -23.4891 -26.5331
rfingers 7.12502
rthumb 2.97079 -56.4921
lclavicle 5.99584e-014 1.23246e-014
lhumerus -32.5062 0.0351615 79.3789
lradius 36.2813
lwrist 15.7214
lhand -11.7331 -22.1832
lfingers 7.12502
lthumb 14.3142 7.30334
rfemur -14.5113 2.18801 15.3456
rtibia 27.7082
rfoot -16.6894 -18.5528
rtoes -10.5776
lfemur -15.8107 -2.96236 -12.6392
ltibia 21.4728
lfoot -10.2846 10.2356
ltoes -15.5675
2144
root 14.4638 17.4363 -16.3576 -2.07358 -59.0065 10.5805
lowerback 3.20685 -0.34112 -4.87844
upperback -1.75116 -0.706793 -0.380677
thorax -3.55675 -0.242878 2.38638
lowerneck -5.67158 0.296127 1.4488
upperneck 12.7701 0.432541 -2.05974
head 4.76725 0.123151 -0.85156
rclavicle -7.51158e-014 4.77083e-015
rhumerus -47.292 16.8744 -93.8623
rradius 78.2889
rwrist -5.08016
rhand -25.2887 -27.1748
rfingers 7.12502
rthumb 1.23276 -57.151
lclavicle -7.51158e-014 4.77083e-015
lhumerus -32.3639 0.123515 79.2713
lradius 36.2633
lwrist 15.6958
lhand -11.8094 -22.2512
lfingers 7.12502
lthumb 14.2406 7.24061
rfemur -14.3328 2.18425 15.4017
rtibia 27.5871
rfoot -17.08 -18.663
rtoes -10.3552
lfemur -15.7004 -2.91896 -12.5565
ltibia 21.3915
lfoot -10.1075 10.0989
ltoes -16.583
2145
root 14.4587 17.441 -16.3761 -1.98725 -59.0002 10.5861
lowerback 3.1011 -0.276001 -4.92493
upperback -1.7744 -0.620258 -0.467597
thorax -3.52842 -0.200449 2.31643
lowerneck -5.67397 0.340546 1.83895
upperneck 12.7729 0.477474 -2.26027
head 4.77049 0.151605 -0.975086
rclavicle 6.11263e-015 3.4191e-014
rhumerus -47.4536 16.2934 -93.8487
rradius 76.5944
rwrist -4.86431
rhand -24.7007 -26.1423
rfingers 7.12502
rthumb 1.80065 -56.1145
lclavicle 6.11263e-015 3.4191e-014
lhumerus -32.292 -0.161555 79.166
lradius 36.3952
lwrist 15.887
lhand -12.0745 -22.2399
lfingers 7.12502
lthumb 13.9852 7.26971
rfemur -14.309 2.41431 15.4412
rtibia 27.3773
rfoot -17.4215 -18.976
rtoes -10.5998
lfemur -15.854 -2.60866 -12.4219
ltibia 21.4726
lfoot -10.4062 9.61012
ltoes -14.2386
2146
root 14.4538 17.448 -16.3884 -1.46406 -58.9216 10.2406
lowerback 2.77442 -0.281248 -4.68354
upperback -1.8036 -0.598516 -0.470669
thorax -3.37701 -0.198491 2.17399
lowerneck -5.61999 0.425207 1.9734
upperneck 12.6608 0.605338 -2.47099
head 4.73042 0.209039 -1.05457
rclavicle 7.72278e-014 -7.15625e-015
rhumerus -47.3234 15.9097 -93.7787
rradius 74.7354
rwrist -4.73591
rhand -22.184 -24.6773
rfingers 7.12502
rthumb 4.23108 -54.615
lclavicle 7.72278e-014 -7.15625e-015
lhumerus -32.1675 -0.0489763 79.0436
lradius 36.4457
lwrist 15.8804
lhand -12.0999 -22.3833
lfingers 7.12502
lthumb 13.9607 7.12796
rfemur -14.5198 2.44731 15.6631
rtibia 27.3635
rfoot -17.381 -19.0977
rtoes -11.043
lfemur -16.1094 -2.14427 -12.1438
ltibia 21.404
lfoot -10.4051 9.05892
ltoes -14.6719
2147
root 14.4532 17.4523 -16.4085 -1.60125 -58.745 10.5655
lowerback 2.71634 -0.323594 -4.91558
upperback -1.89903 -0.665508 -0.470057
thorax -3.43684 -0.223815 2.30815
lowerneck -5.49187 0.583742 1.83395
upperneck 12.6824 0.837877 -2.4948
head 4.72033 0.315236 -1.02596
rclavicle 4.03781e-014 -2.22639e-014
rhumerus -47.2157 15.6928 -93.6703
rradius 72.8779
rwrist -4.60287
rhand -21.1428 -24.1335
rfingers 7.12502
rthumb 5.23645 -54.0488
lclavicle 4.03781e-014 -2.22639e-014
lhumerus -32.2053 0.323346 78.9742
lradius 36.4939
lwrist 15.7724
lhand -12.0476 -22.6473
lfingers 7.12502
lthumb 14.0111 6.86049
rfemur -14.6929 2.49145 15.517
rtibia 27.3952
rfoot -17.3721 -19.2427
rtoes -10.9392
lfemur -16.3376 -1.95514 -12.2708
ltibia 21.3691
lfoot -10.2517 8.81637
ltoes -18.363
